Coordinates
version=1
nRows=10
nColumns=46
inDegrees=yes

Units are S.I. units (second, meters, Newtons, ...)
Angles are in degrees.

endheader
time	pelvis_tilt	pelvis_list	pelvis_rotation	pelvis_tx	pelvis_ty	pelvis_tz	bb_angle	bb_tx	bb_ty	bb_tz	hip_flexion_r	hip_adduction_r	hip_rotation_r	knee_angle_r	knee_angle_r_beta	ankle_angle_r	subtalar_angle_r	mtp_angle_r	crank_angle_r	hip_flexion_l	hip_adduction_l	hip_rotation_l	knee_angle_l	knee_angle_l_beta	ankle_angle_l	subtalar_angle_l	mtp_angle_l	crank_angle_l	lumbar_extension	lumbar_bending	lumbar_rotation	arm_flex_r	arm_add_r	arm_rot_r	elbow_flex_r	pro_sup_r	wrist_flex_r	wrist_dev_r	arm_flex_l	arm_add_l	arm_rot_l	elbow_flex_l	pro_sup_l	wrist_flex_l	wrist_dev_l
      0.00000000	     -8.36210501	     -3.12938724	     -4.36253825	      0.17849113	      1.04843706	     -0.31376301	      0.00000000	      0.50000000	      0.00000000	      0.25000000	     79.02622788	      0.74348947	      1.83133506	     92.25800281	      1.61020591	     17.89778848	     -6.63310224	      0.00000000	      0.00000000	     43.26556206	    -11.56148457	     -1.07985649	     71.41717629	      1.24646487	     -5.05008316	     -9.73887886	      0.00000000	      0.00000000	    -57.16810393	     -2.99540405	      6.40702599	     89.56561326	     -5.45628963	     37.79824471	     19.88518386	     21.50644620	      0.00000000	      0.00000000	     88.83615477	     -2.20636649	     41.25438298	     23.17744557	     24.46817203	      0.00000000	      0.00000000
      0.00500000	     -8.35677006	     -3.14922250	     -4.34615215	      0.17842159	      1.04839393	     -0.31374699	      0.00000000	      0.50000000	      0.00000000	      0.25000000	     79.03235854	      0.74979886	      1.80831836	     92.27491813	      1.61050114	     17.91179387	     -6.72356290	      0.00000000	      0.00000000	     43.28228659	    -11.59360107	     -1.07571504	     71.41849626	      1.24648791	     -5.07872060	     -9.66668098	      0.00000000	      0.00000000	    -57.14604219	     -2.96390686	      6.42092716	     89.56751813	     -5.65180773	     38.89848920	     19.65895598	     22.76161069	      0.00000000	      0.00000000	     88.88734585	     -2.35094304	     42.18710244	     22.50616488	     27.79999084	      0.00000000	      0.00000000
      0.01000000	     -8.36115041	     -3.11899431	     -4.32766598	      0.17837912	      1.04837876	     -0.31376839	      0.00000000	      0.50000000	      0.00000000	      0.25000000	     79.04784296	      0.72312465	      1.85136060	     92.29584202	      1.61086633	     17.92604218	     -6.63793981	      0.00000000	      0.00000000	     43.30597195	    -11.56440948	     -1.09604649	     71.40601514	      1.24627007	     -5.19140610	     -9.73235478	      0.00000000	      0.00000000	    -57.15014688	     -2.95910793	      6.39321562	     89.56436933	     -5.42744216	     37.45529042	     19.47394341	     23.78167546	      0.00000000	      0.00000000	     88.89093245	     -2.13765035	     40.98827053	     22.30746069	     28.79313988	      0.00000000	      0.00000000
      0.01500000	     -8.18568528	     -3.28255605	     -4.40994978	      0.17845627	      1.04866837	     -0.31413186	      0.00000000	      0.50000000	      0.00000000	      0.25000000	     78.81739058	      0.81330832	      1.71548109	     92.30534331	      1.61103216	     17.99590328	     -6.63938994	      0.00000000	      0.00000000	     43.10363952	    -11.74173176	     -1.11756769	     71.41274930	      1.24638760	     -5.23299168	     -9.84818074	      0.00000000	      0.00000000	    -57.41568726	     -2.86161063	      6.60932044	     89.55864410	     -5.55921413	     36.37982397	     20.22151164	     24.67896234	      0.00000000	      0.00000000	     88.81365010	     -2.13582559	     39.92777726	     23.06064779	     29.61640784	      0.00000000	      0.00000000
      0.02000000	     -8.38152352	     -3.22878221	     -4.42299203	      0.17830526	      1.04850374	     -0.31395617	      0.00000000	      0.50000000	      0.00000000	      0.25000000	     79.09591674	      0.77253281	      1.73916802	     92.38314096	      1.61238998	     17.95141160	     -6.66010232	      0.00000000	      0.00000000	     43.34054545	    -11.70734762	     -1.10667516	     71.41192641	      1.24637324	     -5.28771008	     -9.70697178	      0.00000000	      0.00000000	    -57.11875854	     -2.86807648	      6.51298271	     89.56333545	     -5.28663049	     36.48090728	     19.34274349	     24.72594756	      0.00000000	      0.00000000	     88.86682603	     -1.86515447	     40.14648859	     21.76323310	     29.85050745	      0.00000000	      0.00000000
      0.02500000	     -8.11107592	     -3.37611352	     -4.42282476	      0.17820366	      1.04909769	     -0.31395815	      0.00000000	      0.50000000	      0.00000000	      0.25000000	     78.74295554	      0.82662140	      1.58768870	     92.32020837	      1.61129160	     17.99531780	     -6.76886092	      0.00000000	      0.00000000	     43.05771001	    -11.87222808	     -1.13226930	     71.36189949	      1.24550011	     -5.48440075	     -9.87949220	      0.00000000	      0.00000000	    -57.58521036	     -2.74724050	      6.68661743	     89.54669489	     -5.52224140	     34.74429052	     20.72924308	     26.14681182	      0.00000000	      0.00000000	     88.73652986	     -2.02587393	     38.42731798	     23.36445945	     31.09286346	      0.00000000	      0.00000000
      0.03000000	     -8.40186130	     -3.26553619	     -4.39862590	      0.17818562	      1.04850887	     -0.31392904	      0.00000000	      0.50000000	      0.00000000	      0.25000000	     79.12683415	      0.76959412	      1.69829844	     92.40838993	      1.61283066	     17.95144813	     -6.71069353	      0.00000000	      0.00000000	     43.42368234	    -11.75286067	     -1.07535080	     71.42666990	      1.24663056	     -5.40580260	     -9.62554492	      0.00000000	      0.00000000	    -57.08490181	     -2.81100124	      6.54755897	     89.56892090	     -5.67661404	     38.97213234	     19.38826980	     24.02575560	      0.00000000	      0.00000000	     88.92323489	     -2.03789388	     41.71625511	     21.54741630	     30.60262283	      0.00000000	      0.00000000
      0.03500000	     -8.39807097	     -3.24617111	     -4.37611669	      0.17814173	      1.04851695	     -0.31393864	      0.00000000	      0.50000000	      0.00000000	      0.25000000	     79.13253594	      0.75052998	      1.71797755	     92.42490767	      1.61311895	     17.95678518	     -6.71848134	      0.00000000	      0.00000000	     43.43190801	    -11.73164424	     -1.07806893	     71.41244136	      1.24638223	     -5.47599280	     -9.62621784	      0.00000000	      0.00000000	    -57.09245094	     -2.79104910	      6.50712863	     89.56594782	     -5.43767517	     37.57838308	     19.31355043	     24.69160976	      0.00000000	      0.00000000	     88.92134008	     -1.79944941	     40.55768593	     21.27879354	     31.11426156	      0.00000000	      0.00000000
      0.04000000	     -8.40147358	     -3.24393546	     -4.36881134	      0.17811670	      1.04851826	     -0.31393290	      0.00000000	      0.50000000	      0.00000000	      0.25000000	     79.13697670	      0.74965270	      1.72651911	     92.43003988	      1.61320852	     17.96832955	     -6.71934638	      0.00000000	      0.00000000	     43.45490044	    -11.74081813	     -1.08826480	     71.41647922	      1.24645270	     -5.52623430	     -9.60213323	      0.00000000	      0.00000000	    -57.09488977	     -2.78321269	      6.48304235	     89.56406867	     -5.29618988	     36.81468930	     19.28809293	     24.98314691	      0.00000000	      0.00000000	     88.92956250	     -1.64933215	     39.92486717	     21.10060757	     31.33601435	      0.00000000	      0.00000000
      0.04500000	     -8.20755720	     -3.16154282	     -4.43541173	      0.17812622	      1.04896641	     -0.31388459	      0.00000000	      0.50000000	      0.00000000	      0.25000000	     78.91926703	      0.78842281	      1.82515545	     92.41355203	      1.61292076	     18.00039885	     -6.73352724	      0.00000000	      0.00000000	     43.17252654	    -11.72618517	     -1.30780573	     71.30879422	      1.24457324	     -5.75741522	     -9.96243812	      0.00000000	      0.00000000	    -57.39159589	     -2.90635413	      6.56862471	     89.55805548	     -5.35568360	     34.63530468	     19.67514657	     26.69629826	      0.00000000	      0.00000000	     88.85418159	     -1.47907701	     38.04828769	     21.93919586	     32.60367386	      0.00000000	      0.00000000
